# xmcd CD database file
#
# Track frame offsets:
#	150
#	14442
#	39562
#	58105
#	71760
#	89392
#	105832
#	125255
#	137270
#	152507
#	158860
#	179760
#	200765
#
# Disc length: 3012 seconds
#
# Revision: 0
# Processed by: cddbd v1.5.1PL0 Copyright (c) Steve Scherf et al.
# Submitted via: CDex 1.51
#
DISCID=ac0bc20d
DTITLE=銀河管弦楽団 - ブルーアンドホワイト
DYEAR=1900
DGENRE=Instrumental
TTITLE0=青と白
TTITLE1=潮風
TTITLE2=ＡＲＩＧＡＴＯ
TTITLE3=風のレクイエム
TTITLE4=パリの街路で
TTITLE5=街角から
TTITLE6=街明かり
TTITLE7=紫陽花（あじさい）
TTITLE8=ニュー・ホライズン
TTITLE9=キッズ２１
TTITLE10=想い出
TTITLE11=いつか見た青空
TTITLE12=この地球（ほし）に生まれて
EXTD=
EXTT0=
EXTT1=
EXTT2=
EXTT3=
EXTT4=
EXTT5=
EXTT6=
EXTT7=
EXTT8=
EXTT9=
EXTT10=
EXTT11=
EXTT12=
PLAYORDER=
